<svg width="1000" height="1000" viewBox="0 0 1000 1000" fill="none" xmlns="http://www.w3.org/2000/svg">
<path d="M508.831 337.576C508.831 337.739 416.378 17.4836 560.826 16.8337C700.562 16.1837 635.568 295.656 613.633 357.724" fill="white"/>
<path d="M508.831 337.576C508.831 337.739 416.378 17.4836 560.826 16.8337C700.562 16.1837 635.568 295.656 613.633 357.724" stroke="black" stroke-width="8" stroke-linecap="round" stroke-linejoin="round"/>
<path d="M535.316 345.538C535.316 345.538 505.581 180.455 560.988 179.317C606.321 178.505 581.299 350.737 581.299 350.737" fill="#FC6499"/>
<path d="M362.921 361.136L345.698 318.241L390.218 269.496L434.089 340.988" fill="white"/>
<path d="M365.846 303.617C366.333 304.267 383.069 342.938 388.593 353.987C392.818 362.761 410.691 358.049 414.591 350.737C421.578 337.739 400.292 296.63 390.868 280.87" fill="#FC6499"/>
<path d="M434.089 340.988C434.414 220.751 380.144 178.017 321.325 178.342C280.379 178.017 187.601 214.739 198.488 281.195C201.25 297.768 210.349 312.716 223.023 323.603C263.318 358.049 307.839 345.051 345.698 318.241C373.157 298.743 392.493 275.833 390.218 270.308" fill="white"/>
<path d="M434.089 340.988C434.414 220.751 380.144 178.017 321.325 178.342C280.379 178.017 187.601 214.739 198.488 281.195C201.25 297.768 210.349 312.716 223.023 323.603C263.318 358.049 307.839 345.051 345.698 318.241C373.157 298.743 392.493 275.833 390.218 270.308" stroke="black" stroke-width="10" stroke-linecap="round" stroke-linejoin="round"/>
<path d="M327.824 915.53C249.67 903.994 75 873.285 75 725.587C75 647.595 110.909 614.123 134.469 581.952C158.029 549.78 206.937 306.054 559.851 354.312C910.816 402.407 875.394 713.076 867.92 740.373C852.809 812.841 802.439 883.034 618.183 915.53C546.852 928.042 400.617 926.254 327.824 915.53Z" fill="white" stroke="black" stroke-width="10" stroke-linecap="round" stroke-linejoin="round"/>
<path d="M304.102 615.586C318.46 615.586 330.099 603.946 330.099 589.588C330.099 575.23 318.46 563.591 304.102 563.591C289.744 563.591 278.104 575.23 278.104 589.588C278.104 603.946 289.744 615.586 304.102 615.586Z" fill="black"/>
<path d="M534.829 615.586C549.187 615.586 560.826 603.946 560.826 589.588C560.826 575.23 549.187 563.591 534.829 563.591C520.471 563.591 508.831 575.23 508.831 589.588C508.831 603.946 520.471 615.586 534.829 615.586Z" fill="black"/>
<path d="M241.546 665.956C285.068 665.956 320.35 654.68 320.35 640.771C320.35 626.862 285.068 615.586 241.546 615.586C198.023 615.586 162.741 626.862 162.741 640.771C162.741 654.68 198.023 665.956 241.546 665.956Z" fill="#FFC0C3"/>
<path d="M605.509 665.956C649.031 665.956 684.313 654.68 684.313 640.771C684.313 626.862 649.031 615.586 605.509 615.586C561.986 615.586 526.704 626.862 526.704 640.771C526.704 654.68 561.986 665.956 605.509 665.956Z" fill="#FFC0C3"/>
<path d="M419.465 618.835L390.218 643.208L416.216 716.326L447.087 644.833" fill="#FC6499"/>
<path d="M367.47 616.398C395.093 662.706 419.465 615.586 419.465 615.586C419.465 615.586 438.151 661.894 473.897 615.586" stroke="black" stroke-width="8" stroke-linecap="round" stroke-linejoin="round"/>
<path d="M383.719 635.084L410.204 700.89C414.266 710.151 415.566 721.688 419.953 713.076C420.278 712.589 420.44 711.939 420.603 711.289L455.212 633.621" stroke="black" stroke-width="8" stroke-linecap="round" stroke-linejoin="round"/>
<path d="M362.596 360.486L346.348 318.241" stroke="black" stroke-width="10" stroke-linecap="round" stroke-linejoin="round"/>
</svg>
